<?xml version="1.0" encoding="UTF-8"?>
<svg width="340px" height="340px" viewBox="0 0 340 340" version="1.1" xmlns="http://www.w3.org/2000/svg" xmlns:xlink="http://www.w3.org/1999/xlink">
    <title>favicon</title>
    <defs>
        <linearGradient x1="25.1010329%" y1="87.8679847%" x2="74.999675%" y2="11.9779086%" id="linearGradient-1">
            <stop stop-color="#FFDB01" offset="0%"></stop>
            <stop stop-color="#FF851F" offset="25.4152098%"></stop>
            <stop stop-color="#FF3D3D" offset="51.9831731%"></stop>
            <stop stop-color="#FF0F6F" offset="75.9915865%"></stop>
            <stop stop-color="#FE01FA" offset="100%"></stop>
        </linearGradient>
    </defs>
    <g id="favicon" stroke="none" stroke-width="1" fill="none" fill-rule="evenodd">
        <path d="M80.55,311.47 L57.63,271.77 C56.92,270.49 56.92,268.38 57.65,267.12 L83.1,223.05 C83.83,221.78 85.7,220.7 87.17,220.7 L138.06,220.7 C139.53,220.7 141.39,221.78 142.13,223.05 L167.58,267.12 C168.31,268.39 168.31,270.54 167.58,271.82 L142.13,315.89 C141.41,317.14 139.61,318.18 138.16,318.23 L92.36,318.23 C88.04,318.19 82.79,315.18 80.55,311.47 Z M245.83,220.78 L195.13,132.97 C194.12,131.23 191.58,129.76 189.56,129.76 L88.16,129.76 C86.15,129.76 83.6,131.23 82.59,132.97 L31.89,220.78 C30.88,222.52 30.88,225.47 31.89,227.21 L46.75,252.96 L72.71,207.99 C73.89,205.94 76.78,204.28 79.14,204.28 L145.96,204.28 C148.32,204.28 151.21,205.95 152.39,207.99 L185.8,265.85 C186.98,267.9 186.98,271.23 185.8,273.28 L159.84,318.24 L189.54,318.24 C191.55,318.24 194.1,316.77 195.11,315.03 L245.81,227.22 C246.83,225.47 246.83,222.52 245.83,220.78 Z M337.86,162.69 L260.06,27.93 C257.86,24.12 252.46,21 248.06,21 L92.45,21 C88.05,21 82.65,24.12 80.45,27.93 L2.65,162.69 C0.45,166.5 0.45,172.74 2.65,176.55 L20.48,207.43 L72.19,117.87 C73.65,115.34 77.21,113.29 80.12,113.29 L197.54,113.29 C200.46,113.29 204.01,115.34 205.47,117.87 L264.18,219.56 C265.64,222.09 265.64,226.19 264.18,228.72 L212.49,318.24 L248.06,318.24 C252.46,318.24 257.86,315.12 260.06,311.31 L337.86,176.55 C340.06,172.74 340.06,166.5 337.86,162.69 Z" id="Shape" fill="url(#linearGradient-1)" fill-rule="nonzero"></path>
    </g>
</svg>