<?xml version="1.0" encoding="UTF-8"?>
<svg width="185px" height="23px" viewBox="0 0 185 23" version="1.1" xmlns="http://www.w3.org/2000/svg" xmlns:xlink="http://www.w3.org/1999/xlink">
    <title>hex.vision</title>
    <g id="community-logos" stroke="none" stroke-width="1" fill="none" fill-rule="evenodd">
        <g id="Artboard" transform="translate(-1050.000000, -254.000000)" fill="#9CA3AF" fill-rule="nonzero">
            <g id="hex.vision" transform="translate(1050.400000, 254.641296)">
                <polygon id="Path" points="105.612003 1.7587004 103.288003 1.7587004 96.3860014 19.1187032 89.4980002 1.7587004 87.1039999 1.7587004 94.9720011 21.3587036 97.7580016 21.3587036"></polygon>
                <polygon id="Path" points="111.198001 1.7587004 108.944 1.7587004 108.944 21.3587036 111.198001 21.3587036"></polygon>
                <path d="M130.798003,3.64870071 C128.992002,2.3887005 126.738002,1.50670036 123.756001,1.50670036 C119.654001,1.50670036 116.336,3.5927007 116.336,7.31670131 C116.336,10.5647018 118.772001,12.1187021 122.118001,12.4967022 L124.092001,12.7207022 C127.200002,13.0707023 128.838002,14.0227024 128.838002,15.9267027 C128.838002,18.2647031 126.444002,19.4967033 123.406001,19.4967033 C120.858001,19.4967033 118.31,18.4607031 116.952,17.312703 L115.72,19.1047032 C117.568,20.6167035 120.578001,21.6247037 123.420001,21.6247037 C127.648002,21.6247037 131.176003,19.6087033 131.176003,15.7307027 C131.176003,12.3427021 128.292002,10.9707019 125.058002,10.5787018 L123.196001,10.3547018 C120.144001,9.99070175 118.674001,8.99670159 118.674001,7.17670129 C118.674001,4.96470093 120.788001,3.63470071 123.742001,3.63470071 C126.094002,3.63470071 128.068002,4.39070083 129.650002,5.46870101 L130.798003,3.64870071 Z" id="Path"></path>
                <polygon id="Path" points="137.952001 1.7587004 135.698 1.7587004 135.698 21.3587036 137.952001 21.3587036"></polygon>
                <path d="M152.596002,1.47870035 C146.772001,1.47870035 142.474,5.67870104 142.474,11.558702 C142.474,17.438703 146.772001,21.6387037 152.596002,21.6387037 C158.434003,21.6387037 162.718003,17.438703 162.718003,11.558702 C162.718003,5.67870104 158.434003,1.47870035 152.596002,1.47870035 Z M152.596002,3.64870071 C157.006002,3.64870071 160.366003,6.84070123 160.366003,11.558702 C160.366003,16.2767028 157.006002,19.4687033 152.596002,19.4687033 C148.200001,19.4687033 144.84,16.2767028 144.84,11.558702 C144.84,6.84070123 148.200001,3.64870071 152.596002,3.64870071 Z" id="Shape"></path>
                <polygon id="Path" points="183.676003 1.7587004 181.422003 1.7587004 181.422003 17.494703 169.284001 1.7587004 167.254 1.7587004 167.254 21.3587036 169.508001 21.3587036 169.508001 5.62270103 181.646003 21.3587036 183.676003 21.3587036"></polygon>
                <path d="M70.9666074,22.0740967 C72.7015114,22.0740967 74.339751,21.8656718 75.8813261,21.448822 C77.4229012,21.0319722 78.8464852,20.4822489 80.152078,19.7996521 C81.4576709,19.1170553 82.6254413,18.3636424 83.6553892,17.5394135 C84.6853371,16.7151845 85.5619393,15.88679 86.2851957,15.0542297 C87.0084521,14.2216695 87.5608101,13.4531606 87.9422697,12.748703 C88.3237292,12.0442454 88.514459,11.4732666 88.514459,11.0357666 C88.514459,10.5982666 88.3237292,10.0275014 87.9422697,9.32347107 C87.5608101,8.61944071 87.0084521,7.85118103 86.2851957,7.01869202 C85.5619393,6.186203 84.6832721,5.35780843 83.6491941,4.5335083 C82.6151161,3.70920817 81.4452807,2.95579529 80.1396879,2.27326965 C78.834095,1.59074402 77.4125761,1.04123433 75.875131,0.624740601 C74.3376859,0.208246867 72.7015114,0 70.9666074,0 C69.2516416,0 67.6279284,0.208246867 66.0954679,0.624740601 C64.5630074,1.04123433 63.1442299,1.59074402 61.8391355,2.27326965 C60.5340411,2.95579529 59.3621763,3.70920817 58.323541,4.5335083 C57.2849058,5.35780843 56.399367,6.186203 55.6669248,7.01869202 C54.9344826,7.85118103 54.3729744,8.61944071 53.9824003,9.32347107 C53.5918261,10.0275014 53.3965391,10.5982666 53.3965391,11.0357666 C53.3965391,11.4732666 53.5918261,12.0442454 53.9824003,12.748703 C54.3729744,13.4531606 54.9344826,14.2216695 55.6669248,15.0542297 C56.399367,15.88679 57.2849058,16.7151845 58.323541,17.5394135 C59.3621763,18.3636424 60.5340411,19.1170553 61.8391355,19.7996521 C63.1442299,20.4822489 64.5630074,21.0319722 66.0954679,21.448822 C67.6279284,21.8656718 69.2516416,22.0740967 70.9666074,22.0740967 Z M70.9691709,18.17099 C69.6351662,18.17099 68.4284096,17.8459269 67.3489011,17.1958008 C66.2693927,16.5456746 65.4087054,15.6812846 64.7668394,14.6026306 C64.1249733,13.5239766 63.7999103,12.3354492 63.7916502,11.0370483 C63.7916502,9.71044922 64.1125832,8.5080719 64.7544492,7.42991638 C65.3963153,6.35176086 66.2590676,5.49445597 67.3427061,4.85800171 C68.4263446,4.22154744 69.6351662,3.90332031 70.9691709,3.90332031 C72.2866555,3.90332031 73.487217,4.22154744 74.5708555,4.85800171 C75.654494,5.49445597 76.5190977,6.35197449 77.1646665,7.43055725 C77.8102354,8.50914001 78.1330198,9.71130371 78.1330198,11.0370483 C78.1330198,12.0108846 77.9479154,12.9265798 77.5777067,13.7841339 C77.2074979,14.641688 76.6928088,15.3998362 76.0336393,16.0585785 C75.3744698,16.7173208 74.6136157,17.2340749 73.751077,17.6088409 C72.8885384,17.983607 71.9612363,18.17099 70.9691709,18.17099 Z M70.9666074,13.6643982 C71.6919289,13.6643982 72.3133939,13.4058075 72.8310026,12.8886261 C73.3486112,12.3714447 73.6074155,11.7547506 73.6074155,11.0385437 C73.6074155,10.3149312 73.3486112,9.69613647 72.8310026,9.18215942 C72.3133939,8.66818237 71.6919289,8.41119385 70.9666074,8.41119385 C70.2421405,8.41119385 69.6194649,8.66818237 69.0985807,9.18215942 C68.5776965,9.69613647 68.3172544,10.3149312 68.3172544,11.0385437 C68.3172544,11.7547506 68.5776965,12.3714447 69.0985807,12.8886261 C69.6194649,13.4058075 70.2421405,13.6643982 70.9666074,13.6643982 Z" id="Shape" fill-opacity="0.3"></path>
                <polygon id="Path" points="5.32000087 1.7587004 0 1.7587004 0 21.3587036 5.32000087 21.3587036 5.32000087 13.8967024 12.5720021 13.8967024 12.5720021 21.3587036 17.8920029 21.3587036 17.8920029 1.7587004 12.5720021 1.7587004 12.5720021 9.01070159 5.32000087 9.01070159"></polygon>
                <polygon id="Path" points="36.0080025 16.6267028 26.0120009 16.6267028 26.0120009 13.8127024 35.3080024 13.8127024 35.3080024 9.0807016 26.0120009 9.0807016 26.0120009 6.49070118 36.0080025 6.49070118 36.0080025 1.7587004 20.692 1.7587004 20.692 21.3587036 36.0080025 21.3587036"></polygon>
                <polygon id="Path" points="56.0420029 1.7587004 50.0640019 1.7587004 46.6480013 7.55470135 43.2180008 1.7587004 37.1979998 1.7587004 43.4000008 11.502702 37.1979998 21.3587036 43.1760008 21.3587036 46.5920013 15.5487027 50.0220019 21.3587036 56.0420029 21.3587036 49.8400019 11.488702"></polygon>
            </g>
        </g>
    </g>
</svg>