<?xml version="1.0" encoding="UTF-8"?>
<svg width="243px" height="20px" viewBox="0 0 243 20" version="1.1" xmlns="http://www.w3.org/2000/svg" xmlns:xlink="http://www.w3.org/1999/xlink">
    <title>hex-daily-stats-logo</title>
    <g id="Page-1" stroke="none" stroke-width="1" fill="none" fill-rule="evenodd">
        <g id="Artboard" transform="translate(-771.000000, -344.000000)" fill="#9CA3AF" fill-rule="nonzero">
            <path d="M777.738612,364 L777.738612,356.331322 L785.479662,356.331322 L785.479662,364 L792.218274,364 L792.218274,362.800898 L789.823561,362.800898 L789.823561,344.507614 L785.479662,344.507614 L785.479662,352.650356 L777.738612,352.650356 L777.738612,344.507614 L773.394713,344.507614 L773.394713,362.800898 L771,362.800898 L771,364 L777.738612,364 Z M811.203046,364 L811.203046,362.800898 L808.508466,362.800898 L808.508466,360.151718 L798.535744,360.151718 L798.535744,356.108233 L807.230624,356.108233 L807.230624,352.399381 L798.535744,352.399381 L798.535744,348.383782 L808.202895,348.383782 L808.202895,344.507614 L794.202194,344.507614 L794.202194,362.800898 L791.507614,362.800898 L791.507614,364 L811.203046,364 Z M814.990398,364 L819.116826,357.586196 L823.271136,364 L830.492386,364 L830.492386,362.800898 L827.787902,362.800898 L821.988597,353.905231 L828.066715,344.507614 L822.825036,344.507614 L819.116826,350.280037 L815.408617,344.507614 L810.194819,344.507614 L816.300818,354.016775 L810.529394,362.800898 L807.852792,362.800898 L807.852792,364 L814.990398,364 Z M835.771574,363.898477 L835.771574,362.680203 L828.461929,362.680203 L828.461929,363.898477 L835.771574,363.898477 Z M857.091371,364 L857.091371,362.800898 L850.535018,362.800898 C853.757632,361.257867 855.368939,358.404189 855.368939,354.239864 C855.368939,351.153802 854.4429,348.760245 852.590823,347.059193 C850.738746,345.35814 848.081016,344.507614 844.617631,344.507614 L844.617631,344.507614 L837.755686,344.507614 L837.755686,362.800898 L835.060914,362.800898 L835.060914,364 L857.091371,364 Z M844.821339,360.142132 L842.06599,360.142132 L842.06599,348.263959 L844.487357,348.263959 C846.695347,348.263959 848.332785,348.781009 849.399671,349.815109 C850.466557,350.849209 851,352.325829 851,354.244969 C851,356.164109 850.466557,357.626754 849.399671,358.632905 C848.332785,359.639056 846.806674,360.142132 844.821339,360.142132 L844.821339,360.142132 Z M861.157847,364 L862.965788,359.789198 L871.11543,359.789198 L872.923371,364 L880.238579,364 L880.238579,362.800898 L877.012099,362.800898 L869.140602,344.507614 L864.940616,344.507614 L857.041304,362.800898 L853.84264,362.800898 L853.84264,364 L861.157847,364 Z M869.477157,355.979695 L864.604061,355.979695 L867.054532,350.294416 L869.477157,355.979695 Z M886.126904,364 L886.126904,362.800898 L883.731212,362.800898 L883.731212,344.507614 L879.385539,344.507614 L879.385539,362.800898 L876.989848,362.800898 L876.989848,364 L886.126904,364 Z M903.48731,364 L903.48731,362.800898 L900.782227,362.800898 L900.782227,360.123832 L892.471768,360.123832 L892.471768,344.507614 L888.121326,344.507614 L888.121326,362.800898 L885.416244,362.800898 L885.416244,364 L903.48731,364 Z M918.308852,364 L918.308852,362.800898 L911.896256,362.800898 L911.896256,356.303436 L918.614213,344.507614 L913.922747,344.507614 L909.730964,351.758001 L905.539181,344.507614 L900.847716,344.507614 L907.565673,356.303436 L907.565673,362.800898 L901.153077,362.800898 L901.153077,364 L918.308852,364 Z M925.213198,363.898477 L925.213198,362.680203 L917.903553,362.680203 L917.903553,363.898477 L925.213198,363.898477 Z M942.573604,363.898477 L942.573604,362.701786 L939.009166,362.701786 C940.512913,361.607137 941.264787,360.057932 941.264787,358.054169 C941.264787,356.440027 940.754255,355.178399 939.733192,354.269284 C938.712129,353.360169 937.278,352.678334 935.430804,352.223776 C933.583608,351.769219 932.404744,351.37496 931.894213,351.041 C931.383681,350.707039 931.128415,350.25712 931.128415,349.691243 C931.128415,349.125365 931.337269,348.670808 931.754977,348.327571 C932.172684,347.984334 932.743551,347.812715 933.467578,347.812715 C935.268362,347.812715 937.013452,348.452806 938.702847,349.732988 L938.702847,349.732988 L940.902774,346.560363 C939.937405,345.744016 938.804953,345.113202 937.505418,344.667921 C936.205883,344.22264 934.906349,344 933.606814,344 C931.620382,344 929.963475,344.500941 928.636093,345.502822 C927.308711,346.504703 926.64502,347.928674 926.64502,349.774733 C926.64502,351.620792 927.169475,352.975187 928.218386,353.837918 C929.267296,354.70065 930.924203,355.401039 933.189106,355.939086 C934.618594,356.2916 935.574681,356.639476 936.057365,356.982713 C936.54005,357.32595 936.781392,357.789784 936.781392,358.374215 C936.781392,358.958645 936.553973,359.422479 936.099136,359.765717 C935.644299,360.108954 935.017737,360.280572 934.219452,360.280572 C932.437232,360.280572 930.497213,359.362181 928.399392,357.525398 L928.399392,357.525398 L925.809605,360.698023 C926.64502,361.514371 927.573259,362.182291 928.594322,362.701786 L928.594322,362.701786 L924.807107,362.701786 L924.807107,363.898477 L942.573604,363.898477 Z M959.020305,364 L959.020305,362.800898 L952.718207,362.800898 L952.718207,348.272238 L958.239514,348.272238 L958.239514,344.507614 L942.846781,344.507614 L942.846781,348.272238 L948.368087,348.272238 L948.368087,362.800898 L942.06599,362.800898 L942.06599,364 L959.020305,364 Z M963.086781,364 L964.894722,359.789198 L973.044364,359.789198 L974.852305,364 L982.167513,364 L982.167513,362.800898 L978.941033,362.800898 L971.069536,344.507614 L966.86955,344.507614 L958.970239,362.800898 L955.771574,362.800898 L955.771574,364 L963.086781,364 Z M971.406091,355.979695 L966.532995,355.979695 L968.983466,350.294416 L971.406091,355.979695 Z M995.873096,364 L995.873096,362.800898 L989.570999,362.800898 L989.570999,348.272238 L995.092306,348.272238 L995.092306,344.507614 L979.699573,344.507614 L979.699573,348.272238 L985.220879,348.272238 L985.220879,362.800898 L978.918782,362.800898 L978.918782,364 L995.873096,364 Z M1013.2335,363.898477 L1013.2335,362.701786 L1009.66906,362.701786 C1011.17281,361.607137 1011.92469,360.057932 1011.92469,358.054169 C1011.92469,356.440027 1011.41415,355.178399 1010.39309,354.269284 C1009.37203,353.360169 1007.9379,352.678334 1006.0907,352.223776 C1004.24351,351.769219 1003.06464,351.37496 1002.55411,351.041 C1002.04358,350.707039 1001.78831,350.25712 1001.78831,349.691243 C1001.78831,349.125365 1001.99717,348.670808 1002.41488,348.327571 C1002.83258,347.984334 1003.40345,347.812715 1004.12748,347.812715 C1005.92826,347.812715 1007.67335,348.452806 1009.36275,349.732988 L1009.36275,349.732988 L1011.56267,346.560363 C1010.5973,345.744016 1009.46485,345.113202 1008.16532,344.667921 C1006.86578,344.22264 1005.56625,344 1004.26671,344 C1002.28028,344 1000.62337,344.500941 999.295992,345.502822 C997.96861,346.504703 997.304919,347.928674 997.304919,349.774733 C997.304919,351.620792 997.829374,352.975187 998.878284,353.837918 C999.927194,354.70065 1001.5841,355.401039 1003.849,355.939086 C1005.27849,356.2916 1006.23458,356.639476 1006.71726,356.982713 C1007.19995,357.32595 1007.44129,357.789784 1007.44129,358.374215 C1007.44129,358.958645 1007.21387,359.422479 1006.75903,359.765717 C1006.3042,360.108954 1005.67764,360.280572 1004.87935,360.280572 C1003.09713,360.280572 1001.15711,359.362181 999.059291,357.525398 L999.059291,357.525398 L996.469503,360.698023 C997.304919,361.514371 998.233158,362.182291 999.254221,362.701786 L999.254221,362.701786 L995.467005,362.701786 L995.467005,363.898477 L1013.2335,363.898477 Z" id="hex-daily-stats-logo" transform="translate(892.116751, 354.000000) rotate(-360.000000) translate(-892.116751, -354.000000) "></path>
        </g>
    </g>
</svg>