<?xml version="1.0" encoding="UTF-8"?>
<svg width="167px" height="38px" viewBox="0 0 167 38" version="1.1" xmlns="http://www.w3.org/2000/svg" xmlns:xlink="http://www.w3.org/1999/xlink">
    <title>hex-com-logo</title>
    <g id="Page-1" stroke="none" stroke-width="1" fill="none" fill-rule="evenodd">
        <g id="Artboard" transform="translate(-262.000000, -255.000000)" fill="#9CA3AF" fill-rule="nonzero">
            <path d="M279.500077,280.493671 C279.71217,280.506023 279.905968,280.617849 280.022824,280.795308 L283.286125,286.447519 C283.380574,286.637516 283.380574,286.860796 283.286125,287.050793 L280.013544,292.69991 C279.896662,292.872556 279.70784,292.98291 279.500077,293 L273.636961,293 C273.026039,292.960598 272.467924,292.640069 272.125944,292.132214 L269.187427,287.044605 C269.096174,286.85604 269.096174,286.636084 269.187427,286.447519 L272.452275,280.795308 C272.56829,280.617719 272.76172,280.505774 272.973475,280.493671 L279.500077,280.493671 Z M286.084666,268.949367 C286.372296,268.967721 286.634884,269.119047 286.794738,269.358569 L286.794738,269.358569 L293.26394,280.55779 C293.394721,280.818207 293.394721,281.125006 293.26394,281.385424 L293.26394,281.385424 L286.790117,292.589259 C286.631791,292.830629 286.368458,292.982954 286.080045,293 L286.080045,293 L282.286321,293 L285.607177,287.258861 C285.758146,286.960979 285.758146,286.609117 285.607177,286.311235 L285.607177,286.311235 L281.339045,278.927134 C281.156381,278.647813 280.851593,278.471909 280.518072,278.453321 L280.518072,278.453321 L271.984887,278.453321 C271.653802,278.47453 271.351988,278.650036 271.170076,278.927134 L271.170076,278.927134 L267.849219,284.668272 L265.943885,281.382347 C265.816173,281.124456 265.816173,280.821835 265.943885,280.563943 L265.943885,280.563943 L272.420788,269.358569 C272.580642,269.119047 272.843231,268.967721 273.13086,268.949367 L273.13086,268.949367 Z M293.589268,255 C294.215168,255.033079 294.78786,255.362277 295.131318,255.88641 L295.131318,255.88641 L305.069832,273.115132 L305.080627,273.116673 C305.36131,273.673218 305.36131,274.329865 305.080627,274.88641 L305.080627,274.88641 L295.137486,292.11359 C294.794028,292.637723 294.221336,292.966921 293.595436,293 L293.595436,293 L289.046388,293 L295.658699,281.555294 C295.845279,281.187031 295.845279,280.751955 295.658699,280.383692 L295.658699,280.383692 L288.150456,267.383529 C287.924606,267.038125 287.547927,266.820656 287.135787,266.797728 L287.135787,266.797728 L272.114675,266.797728 C271.702126,266.820665 271.324981,267.038073 271.098464,267.383529 L271.098464,267.383529 L264.49232,278.83286 L262.211628,274.884868 C261.929457,274.328678 261.929457,273.671322 262.211628,273.115132 L262.211628,273.115132 L272.154768,255.88641 C272.498227,255.362277 273.070919,255.033079 273.696819,255 L273.696819,255 Z M379.173878,264.043038 C381.604909,264.043038 383.681801,264.825004 385.455588,266.86766 L382.985895,268.682499 C381.668314,267.297126 380.452798,266.916918 379.210993,266.916918 C375.511867,266.916918 373.056093,269.74154 373.056093,273.297332 C373.056093,277.10403 375.511867,279.928652 379.210993,279.928652 C380.655384,279.928652 382.048742,279.272908 383.231782,277.759773 L385.86076,279.625409 C384.240072,281.845085 381.807495,282.802532 379.173878,282.802532 C373.651479,282.802532 369.698734,279.07126 369.698734,273.49898 C369.698734,267.77431 373.651479,264.043038 379.173878,264.043038 Z M406.207595,273.398371 C406.207595,278.970067 402.289926,282.702487 396.741428,282.802532 C391.268035,282.802532 387.351899,279.07165 387.351899,273.499954 C387.351899,267.775883 391.268035,264.045002 396.741428,264.045002 C402.289926,263.944957 406.207595,267.675839 406.207595,273.398371 Z M367.005834,278.665896 C368.084947,278.665896 369.025317,279.470377 369.025317,280.517243 C369.006739,281.577899 368.105533,282.425972 367.005834,282.417661 C365.94522,282.417661 364.98481,281.61318 364.98481,280.566314 C365.003391,279.505073 365.905536,278.656763 367.005834,278.665896 Z M316.963769,264.427848 L316.963769,271.522287 L325.269143,271.522287 L325.269143,264.427848 L328.427848,264.427848 L328.427848,282.225316 L325.269143,282.225316 L325.269143,274.385225 L316.963769,274.385225 L316.963769,282.225316 L313.805063,282.225316 L313.805063,264.427848 L316.963769,264.427848 Z M343.461071,264.427848 L343.461071,267.293061 L334.788684,267.293061 L334.788684,271.668381 L343.005685,271.668381 L343.005685,274.533593 L334.788684,274.533593 L334.788684,279.360104 L343.916456,279.360104 L343.916456,282.225316 L331.602532,282.225316 L331.602532,264.427848 L343.461071,264.427848 Z M350.269938,264.427848 L354.491018,271.014615 L358.658079,264.427848 L362.525729,264.427848 L356.660976,272.925268 L363.156962,282.225316 L359.113369,282.225316 L354.384526,274.705476 L349.683463,282.225316 L345.840506,282.225316 L352.223827,272.925268 L346.257213,264.427848 L350.269938,264.427848 Z M413.795706,264.427848 L418.572702,276.893747 L423.394385,264.427848 L428.189874,264.427848 L428.189874,282.225316 L425.160333,282.225316 L425.160333,267.444212 L425.111022,267.444212 L419.677575,282.220714 L417.455502,282.220714 L412.029758,267.444212 L411.972743,267.444212 L411.972743,282.220714 L408.949367,282.220714 L408.949367,264.427848 L413.795706,264.427848 Z M396.717102,266.929114 C393.055307,266.929114 390.622785,269.748441 390.622785,273.297567 C390.622785,277.097129 393.055307,279.914919 396.717102,279.914919 L396.717102,279.916456 C400.401861,279.916456 402.840506,277.097129 402.840506,273.297567 C402.840506,269.748441 400.407984,266.929114 396.717102,266.929114 Z" id="hex-com-logo"></path>
        </g>
    </g>
</svg>