<?xml version="1.0" encoding="UTF-8"?>
<svg width="101px" height="23px" viewBox="0 0 101 23" version="1.1" xmlns="http://www.w3.org/2000/svg" xmlns:xlink="http://www.w3.org/1999/xlink">
    <title>hex-calc-logo</title>
    <g id="Page-1" stroke="none" stroke-width="1" fill="none" fill-rule="evenodd">
        <g id="Artboard" transform="translate(-525.000000, -341.000000)" fill="#9CA3AF" fill-rule="nonzero">
            <path d="M528.003486,363.462758 L528.003486,353.921092 L539.378486,353.921092 L539.378486,363.462758 L541.961819,363.462758 L541.961819,342.129425 L539.378486,342.129425 L539.378486,351.629425 L528.003486,351.629425 L528.003486,342.129425 L525.420152,342.129425 L525.420152,363.462758 L528.003486,363.462758 Z M551.548156,363.796092 C554.798156,363.796092 557.173156,362.171092 557.923156,359.754425 L555.548156,359.087758 C554.923156,360.754425 553.475239,361.587758 551.548156,361.587758 C548.662739,361.587758 546.673156,359.723175 546.558573,356.296092 L558.173156,356.296092 L558.173156,355.254425 C558.173156,349.296092 554.631489,347.254425 551.298156,347.254425 C546.964823,347.254425 544.089823,350.671092 544.089823,355.587758 C544.089823,360.504425 546.923156,363.796092 551.548156,363.796092 Z M555.673156,354.171092 L546.558573,354.171092 C546.725239,351.681508 548.485656,349.462758 551.298156,349.462758 C553.964823,349.462758 555.673156,351.462758 555.673156,354.171092 Z M561.384435,363.462758 L565.217769,357.254425 L569.051102,363.462758 L571.884435,363.462758 L566.717769,355.462758 L571.884435,347.462758 L569.051102,347.462758 L565.217769,354.004425 L561.384435,347.462758 L558.551102,347.462758 L563.634435,355.462758 L558.551102,363.462758 L561.384435,363.462758 Z M582.345705,363.754425 C586.637372,363.754425 590.137372,361.171092 590.929039,356.796092 L588.345705,356.796092 C587.720705,359.754425 585.179039,361.337758 582.345705,361.337758 C578.470705,361.337758 575.429039,358.337758 575.429039,352.796092 C575.429039,347.254425 578.470705,344.254425 582.345705,344.254425 C585.179039,344.254425 587.720705,345.837758 588.345705,348.796092 L590.929039,348.796092 C590.137372,344.421092 586.637372,341.837758 582.345705,341.837758 C576.887372,341.837758 572.929039,346.046092 572.929039,352.796092 C572.929039,359.546092 576.887372,363.754425 582.345705,363.754425 Z M597.515372,363.837758 C600.307038,363.837758 601.765372,362.337758 602.265372,361.296092 L602.390372,361.296092 L602.390372,363.462758 L604.848705,363.462758 L604.848705,352.921092 C604.848705,347.837758 600.973705,347.254425 598.932038,347.254425 C596.515372,347.254425 593.765372,348.087758 592.515372,351.004425 L594.848705,351.837758 C595.390372,350.671092 596.671622,349.421092 599.015372,349.421092 C601.275788,349.421092 602.390372,350.619008 602.390372,352.671092 L602.390372,352.754425 C602.390372,353.941925 601.182038,353.837758 598.265372,354.212758 C595.296622,354.598175 592.057038,355.254425 592.057038,358.921092 C592.057038,362.046092 594.473705,363.837758 597.515372,363.837758 Z M597.890372,361.629425 C595.932038,361.629425 594.515372,360.754425 594.515372,359.046092 C594.515372,357.171092 596.223705,356.587758 598.140372,356.337758 C598.588288,356.284008 599.35978,356.199442 600.12688,356.080746 L600.233856,356.063961 C601.213601,355.908071 602.161205,355.696092 602.390372,355.421092 L602.390372,357.671092 C602.390372,359.671092 600.807038,361.629425 597.890372,361.629425 Z M609.85165,363.462758 L609.85165,342.129425 L607.393316,342.129425 L607.393316,363.462758 L609.85165,363.462758 Z M618.896151,363.796092 C622.437818,363.796092 624.771151,361.629425 625.187818,358.796092 L622.729485,358.796092 C622.271151,360.546092 620.812818,361.587758 618.896151,361.587758 C615.979485,361.587758 614.104485,359.171092 614.104485,355.462758 C614.104485,351.837758 616.021151,349.462758 618.896151,349.462758 C621.062818,349.462758 622.354485,350.796092 622.729485,352.254425 L625.187818,352.254425 C624.771151,349.254425 622.229485,347.254425 618.854485,347.254425 C614.521151,347.254425 611.646151,350.671092 611.646151,355.546092 C611.646151,360.337758 614.396151,363.796092 618.896151,363.796092 Z" id="hex-calc-logo"></path>
        </g>
    </g>
</svg>