<?xml version="1.0" encoding="UTF-8"?>
<svg width="186px" height="38px" viewBox="0 0 186 38" version="1.1" xmlns="http://www.w3.org/2000/svg" xmlns:xlink="http://www.w3.org/1999/xlink">
    <title>look-into-hex-logo</title>
    <g id="Page-1" stroke="none" stroke-width="1" fill="none" fill-rule="evenodd">
        <g id="Artboard" transform="translate(-1050.000000, -333.000000)" fill="#9CA3AF" fill-rule="nonzero">
            <g id="look-into-hex-logo" transform="translate(1050.000000, 333.000000)">
                <path d="M63.6748201,30.6244726 L63.6748201,28.7455384 L55.5441594,28.7455384 L55.5441594,13.1333034 L53.4260882,13.1333034 L53.4260882,30.6244726 L63.6748201,30.6244726 Z M71.2089225,30.8977721 C74.7618162,30.8977721 77.153187,28.1989393 77.153187,24.133609 C77.153187,20.0341162 74.7618162,17.3352835 71.2089225,17.3352835 C67.6560288,17.3352835 65.264658,20.0341162 65.264658,24.133609 C65.264658,28.1989393 67.6560288,30.8977721 71.2089225,30.8977721 Z M71.2089225,29.0871628 C68.5100898,29.0871628 67.2802419,26.7641169 67.2802419,24.133609 C67.2802419,21.5031011 68.5100898,19.1458928 71.2089225,19.1458928 C73.9077553,19.1458928 75.1376031,21.5031011 75.1376031,24.133609 C75.1376031,26.7641169 73.9077553,29.0871628 71.2089225,29.0871628 Z M84.7556237,30.8977721 C88.3085174,30.8977721 90.6998882,28.1989393 90.6998882,24.133609 C90.6998882,20.0341162 88.3085174,17.3352835 84.7556237,17.3352835 C81.2027299,17.3352835 78.8113592,20.0341162 78.8113592,24.133609 C78.8113592,28.1989393 81.2027299,30.8977721 84.7556237,30.8977721 Z M84.7556237,29.0871628 C82.0567909,29.0871628 80.8269431,26.7641169 80.8269431,24.133609 C80.8269431,21.5031011 82.0567909,19.1458928 84.7556237,19.1458928 C87.4544564,19.1458928 88.6843043,21.5031011 88.6843043,24.133609 C88.6843043,26.7641169 87.4544564,29.0871628 84.7556237,29.0871628 Z M94.9885682,30.6244726 L94.9885682,25.7136218 L96.3977689,24.4069085 L101.30862,30.6244726 L103.870803,30.6244726 L97.9179974,23.1087358 L103.460853,17.5060957 L100.966995,17.5060957 L95.2277053,23.3478729 L94.9885682,23.3478729 L94.9885682,13.1333034 L92.9729843,13.1333034 L92.9729843,30.6244726 L94.9885682,30.6244726 Z M107.647031,30.6244726 L107.647031,13.1333034 L105.52896,13.1333034 L105.52896,30.6244726 L107.647031,30.6244726 Z M112.823843,30.6244726 L112.823843,22.732949 C112.823843,20.4440655 114.241585,19.1458928 116.171763,19.1458928 C118.042156,19.1458928 119.178057,20.3672 119.178057,22.425487 L119.178057,30.6244726 L121.193641,30.6244726 L121.193641,22.2888372 C121.193641,18.9409181 119.408654,17.3352835 116.752524,17.3352835 C114.771103,17.3352835 113.541255,18.2235069 112.926331,19.5558421 L112.755519,19.5558421 L112.755519,17.5060957 L110.808259,17.5060957 L110.808259,30.6244726 L112.823843,30.6244726 Z M128.522775,30.7952848 C129.274349,30.7952848 129.752623,30.658635 130.025923,30.5561477 L129.615973,28.7455384 C129.445161,28.7797008 129.171862,28.8480257 128.72775,28.8480257 C127.839526,28.8480257 126.985465,28.5747262 126.985465,26.8666042 L126.985465,19.2142177 L129.786785,19.2142177 L129.786785,17.5060957 L126.985465,17.5060957 L126.985465,14.3631512 L124.969881,14.3631512 L124.969881,17.5060957 L122.98846,17.5060957 L122.98846,19.2142177 L124.969881,19.2142177 L124.969881,27.4132032 C124.969881,29.7020867 126.814653,30.7952848 128.522775,30.7952848 Z M137.218344,30.8977721 C140.771238,30.8977721 143.162609,28.1989393 143.162609,24.133609 C143.162609,20.0341162 140.771238,17.3352835 137.218344,17.3352835 C133.665451,17.3352835 131.27408,20.0341162 131.27408,24.133609 C131.27408,28.1989393 133.665451,30.8977721 137.218344,30.8977721 Z M137.218344,29.0871628 C134.519511,29.0871628 133.289664,26.7641169 133.289664,24.133609 C133.289664,21.5031011 134.519511,19.1458928 137.218344,19.1458928 C139.917177,19.1458928 141.147025,21.5031011 141.147025,24.133609 C141.147025,26.7641169 139.917177,29.0871628 137.218344,29.0871628 Z M147.827076,30.6244726 L147.827076,22.8012738 L157.153422,22.8012738 L157.153422,30.6244726 L159.271493,30.6244726 L159.271493,13.1333034 L157.153422,13.1333034 L157.153422,20.9223396 L147.827076,20.9223396 L147.827076,13.1333034 L145.709004,13.1333034 L145.709004,30.6244726 L147.827076,30.6244726 Z M167.933005,30.8977721 C170.597675,30.8977721 172.544934,29.5654369 173.159858,27.5840154 L171.212599,27.0374164 C170.700162,28.403914 169.513018,29.0871628 167.933005,29.0871628 C165.567256,29.0871628 163.935999,27.5583936 163.842053,24.7485329 L173.364833,24.7485329 L173.364833,23.8944719 C173.364833,19.009243 170.461025,17.3352835 167.72803,17.3352835 C164.175136,17.3352835 161.817928,20.1366035 161.817928,24.1677714 C161.817928,28.1989393 164.140974,30.8977721 167.933005,30.8977721 Z M171.315086,23.0062485 L163.842053,23.0062485 C163.978702,20.9650427 165.422065,19.1458928 167.72803,19.1458928 C169.914426,19.1458928 171.315086,20.7856899 171.315086,23.0062485 Z M176.799444,30.6244726 L179.942388,25.534269 L183.085333,30.6244726 L185.408379,30.6244726 L181.172236,24.0652841 L185.408379,17.5060957 L183.085333,17.5060957 L179.942388,22.8695987 L176.799444,17.5060957 L174.476398,17.5060957 L178.644216,24.0652841 L174.476398,30.6244726 L176.799444,30.6244726 Z" id="LookIntoHex"></path>
                <path d="M38,3.36708861 L37.4302341,3.37820805 C18.8524558,3.88936071 3.88623641,18.8573944 3.37805149,37.4359204 L3.36708861,38 L0,38 C0.238276452,17.3296969 16.7849655,0.578687626 37.3748395,0.0121997197 L38,0 L38,3.36708861 Z" id="Path" fill-opacity="0.16"></path>
                <path d="M38,6.65400844 L37.4843089,6.6640727 C20.6696909,7.1267175 7.1239061,20.6741709 6.66393149,37.4894558 L6.65400844,38 L3.36708861,38 C3.58425703,19.1612539 18.6648015,3.89452387 37.4302341,3.37820805 L38,3.36708861 L38,6.65400844 Z" id="Path" fill-opacity="0.32"></path>
                <path d="M38,9.94092827 L37.5383848,9.94993793 C22.4869656,10.3640938 10.3615772,22.4909758 9.94981152,37.542992 L9.94092827,38 L6.65400844,38 C6.8505874,20.9491919 20.4998463,7.13139068 37.4843089,6.6640727 L38,6.65400844 L38,9.94092827 Z" id="Path" fill-opacity="0.48"></path>
                <path d="M38,13.3080169 L37.5937769,13.3159435 C24.3484738,13.6803421 13.6781257,24.3520905 13.3158323,37.5978339 L13.3080169,38 L9.94092827,38 C10.1169184,22.7371584 22.3349311,10.3682772 37.5383848,9.94993793 L38,9.94092827 L38,13.3080169 Z" id="Path" fill-opacity="0.64"></path>
                <path d="M38,16.5949367 L37.6478517,16.6018087 C26.1657089,16.9177152 16.9157954,26.1687681 16.6017123,37.6513663 L16.5949367,38 L13.3080169,38 C13.4628259,24.568733 24.2146829,13.6840229 37.5937769,13.3159435 L38,13.3080169 L38,16.5949367 Z" id="Path" fill-opacity="0.8"></path>
                <path d="M38,19.8818565 C28.0449861,19.996635 19.996635,28.0449861 19.8818565,38 L16.5949367,38 C16.7291562,26.3565697 26.0497277,16.9209062 37.6478517,16.6018087 L38,16.5949367 L38,19.8818565 Z" id="Path" fill-opacity="0.88"></path>
            </g>
        </g>
    </g>
</svg>