<?xml version="1.0" encoding="UTF-8"?>
<svg width="186px" height="38px" viewBox="0 0 186 38" version="1.1" xmlns="http://www.w3.org/2000/svg" xmlns:xlink="http://www.w3.org/1999/xlink">
    <title>look-into-hex-logo</title>
    <g id="Page-1" stroke="none" stroke-width="1" fill="none" fill-rule="evenodd">
        <g id="Artboard" transform="translate(-1050.000000, -333.000000)" fill="#9CA3AF" fill-rule="nonzero">
            <g id="look-into-hex-logo" transform="translate(1050.000000, 333.000000)">
                <path d="M63.6748201,27.6244726 L63.6748201,25.7455384 L55.5441594,25.7455384 L55.5441594,10.1333034 L53.4260882,10.1333034 L53.4260882,27.6244726 L63.6748201,27.6244726 Z M71.2089225,27.8977721 C74.7618162,27.8977721 77.153187,25.1989393 77.153187,21.133609 C77.153187,17.0341162 74.7618162,14.3352835 71.2089225,14.3352835 C67.6560288,14.3352835 65.264658,17.0341162 65.264658,21.133609 C65.264658,25.1989393 67.6560288,27.8977721 71.2089225,27.8977721 Z M71.2089225,26.0871628 C68.5100898,26.0871628 67.2802419,23.7641169 67.2802419,21.133609 C67.2802419,18.5031011 68.5100898,16.1458928 71.2089225,16.1458928 C73.9077553,16.1458928 75.1376031,18.5031011 75.1376031,21.133609 C75.1376031,23.7641169 73.9077553,26.0871628 71.2089225,26.0871628 Z M84.7556237,27.8977721 C88.3085174,27.8977721 90.6998882,25.1989393 90.6998882,21.133609 C90.6998882,17.0341162 88.3085174,14.3352835 84.7556237,14.3352835 C81.2027299,14.3352835 78.8113592,17.0341162 78.8113592,21.133609 C78.8113592,25.1989393 81.2027299,27.8977721 84.7556237,27.8977721 Z M84.7556237,26.0871628 C82.0567909,26.0871628 80.8269431,23.7641169 80.8269431,21.133609 C80.8269431,18.5031011 82.0567909,16.1458928 84.7556237,16.1458928 C87.4544564,16.1458928 88.6843043,18.5031011 88.6843043,21.133609 C88.6843043,23.7641169 87.4544564,26.0871628 84.7556237,26.0871628 Z M94.9885682,27.6244726 L94.9885682,22.7136218 L96.3977689,21.4069085 L101.30862,27.6244726 L103.870803,27.6244726 L97.9179974,20.1087358 L103.460853,14.5060957 L100.966995,14.5060957 L95.2277053,20.3478729 L94.9885682,20.3478729 L94.9885682,10.1333034 L92.9729843,10.1333034 L92.9729843,27.6244726 L94.9885682,27.6244726 Z M107.647031,27.6244726 L107.647031,10.1333034 L105.52896,10.1333034 L105.52896,27.6244726 L107.647031,27.6244726 Z M112.823843,27.6244726 L112.823843,19.732949 C112.823843,17.4440655 114.241585,16.1458928 116.171763,16.1458928 C118.042156,16.1458928 119.178057,17.3672 119.178057,19.425487 L119.178057,27.6244726 L121.193641,27.6244726 L121.193641,19.2888372 C121.193641,15.9409181 119.408654,14.3352835 116.752524,14.3352835 C114.771103,14.3352835 113.541255,15.2235069 112.926331,16.5558421 L112.755519,16.5558421 L112.755519,14.5060957 L110.808259,14.5060957 L110.808259,27.6244726 L112.823843,27.6244726 Z M128.522775,27.7952848 C129.274349,27.7952848 129.752623,27.658635 130.025923,27.5561477 L129.615973,25.7455384 C129.445161,25.7797008 129.171862,25.8480257 128.72775,25.8480257 C127.839526,25.8480257 126.985465,25.5747262 126.985465,23.8666042 L126.985465,16.2142177 L129.786785,16.2142177 L129.786785,14.5060957 L126.985465,14.5060957 L126.985465,11.3631512 L124.969881,11.3631512 L124.969881,14.5060957 L122.98846,14.5060957 L122.98846,16.2142177 L124.969881,16.2142177 L124.969881,24.4132032 C124.969881,26.7020867 126.814653,27.7952848 128.522775,27.7952848 Z M137.218344,27.8977721 C140.771238,27.8977721 143.162609,25.1989393 143.162609,21.133609 C143.162609,17.0341162 140.771238,14.3352835 137.218344,14.3352835 C133.665451,14.3352835 131.27408,17.0341162 131.27408,21.133609 C131.27408,25.1989393 133.665451,27.8977721 137.218344,27.8977721 Z M137.218344,26.0871628 C134.519511,26.0871628 133.289664,23.7641169 133.289664,21.133609 C133.289664,18.5031011 134.519511,16.1458928 137.218344,16.1458928 C139.917177,16.1458928 141.147025,18.5031011 141.147025,21.133609 C141.147025,23.7641169 139.917177,26.0871628 137.218344,26.0871628 Z M147.827076,27.6244726 L147.827076,19.8012738 L157.153422,19.8012738 L157.153422,27.6244726 L159.271493,27.6244726 L159.271493,10.1333034 L157.153422,10.1333034 L157.153422,17.9223396 L147.827076,17.9223396 L147.827076,10.1333034 L145.709004,10.1333034 L145.709004,27.6244726 L147.827076,27.6244726 Z M167.933005,27.8977721 C170.597675,27.8977721 172.544934,26.5654369 173.159858,24.5840154 L171.212599,24.0374164 C170.700162,25.403914 169.513018,26.0871628 167.933005,26.0871628 C165.567256,26.0871628 163.935999,24.5583936 163.842053,21.7485329 L173.364833,21.7485329 L173.364833,20.8944719 C173.364833,16.009243 170.461025,14.3352835 167.72803,14.3352835 C164.175136,14.3352835 161.817928,17.1366035 161.817928,21.1677714 C161.817928,25.1989393 164.140974,27.8977721 167.933005,27.8977721 Z M171.315086,20.0062485 L163.842053,20.0062485 C163.978702,17.9650427 165.422065,16.1458928 167.72803,16.1458928 C169.914426,16.1458928 171.315086,17.7856899 171.315086,20.0062485 Z M176.799444,27.6244726 L179.942388,22.534269 L183.085333,27.6244726 L185.408379,27.6244726 L181.172236,21.0652841 L185.408379,14.5060957 L183.085333,14.5060957 L179.942388,19.8695987 L176.799444,14.5060957 L174.476398,14.5060957 L178.644216,21.0652841 L174.476398,27.6244726 L176.799444,27.6244726 Z" id="LookIntoHex"></path>
                <path d="M38,3.36708861 L37.4302341,3.37820805 C18.8524558,3.88936071 3.88623641,18.8573944 3.37805149,37.4359204 L3.36708861,38 L-3.55271368e-15,38 C0.238276452,17.3296969 16.7849655,0.578687626 37.3748395,0.0121997197 L38,0 L38,3.36708861 Z" id="Path" fill-opacity="0.16" transform="translate(19.000000, 19.000000) scale(-1, -1) translate(-19.000000, -19.000000) "></path>
                <path d="M34.6329114,3.28691983 L34.1172203,3.29698409 C17.3026023,3.75962889 3.75681749,17.3070823 3.29684289,34.1223672 L3.28691983,34.6329114 L-5.7909233e-13,34.6329114 C0.21716842,15.7941653 15.2977129,0.52743526 34.0631455,0.0111194411 L34.6329114,1.0658141e-13 L34.6329114,3.28691983 Z" id="Path" fill-opacity="0.32" transform="translate(17.316456, 17.316456) scale(-1, -1) translate(-17.316456, -17.316456) "></path>
                <path d="M31.3459916,3.28691983 L30.8843764,3.29592949 C15.8329572,3.71008535 3.70756875,15.8369674 3.29580308,30.8889836 L3.28691983,31.3459916 L2.89546165e-13,31.3459916 C0.196578963,14.2951834 13.8458379,0.477382243 30.8303004,0.0100642583 L31.3459916,6.21724894e-14 L31.3459916,3.28691983 Z" id="Path" fill-opacity="0.48" transform="translate(15.672996, 15.672996) scale(-1, -1) translate(-15.672996, -15.672996) "></path>
                <path d="M28.0590717,3.36708861 L27.6528487,3.37501527 C14.4075455,3.73941383 3.73719746,14.4111622 3.37490402,27.6569057 L3.36708861,28.0590717 L-6.62581101e-13,28.0590717 C0.175990118,12.7962301 12.3940028,0.427348913 27.5974565,0.00900965742 L28.0590717,1.95399252e-14 L28.0590717,3.36708861 Z" id="Path" fill-opacity="0.64" transform="translate(14.029536, 14.029536) scale(-1, -1) translate(-14.029536, -14.029536) "></path>
                <path d="M24.6919831,3.28691983 L24.3398348,3.29379183 C12.857692,3.60969832 3.60777852,12.8607512 3.29369541,24.3433495 L3.28691983,24.6919831 L5.77315973e-13,24.6919831 C0.154808986,11.2607162 10.906666,0.376006021 24.2857601,0.00792665776 L24.6919831,-9.9475983e-14 L24.6919831,3.28691983 Z" id="Path" fill-opacity="0.8" transform="translate(12.345992, 12.345992) scale(-1, -1) translate(-12.345992, -12.345992) "></path>
                <path d="M21.4050633,3.28691983 C11.4500494,3.40169827 3.40169827,11.4500494 3.28691983,21.4050633 L-3.73034936e-13,21.4050633 C0.134219507,9.76163302 9.45479095,0.325969466 21.052915,0.00687199912 L21.4050633,8.70414851e-14 L21.4050633,3.28691983 Z" id="Path" fill-opacity="0.88" transform="translate(10.702532, 10.702532) scale(-1, -1) translate(-10.702532, -10.702532) "></path>
            </g>
        </g>
    </g>
</svg>