<?xml version="1.0" encoding="UTF-8"?>
<svg width="182px" height="39px" viewBox="0 0 182 39" version="1.1" xmlns="http://www.w3.org/2000/svg" xmlns:xlink="http://www.w3.org/1999/xlink">
    <title>pulse-chain-logo</title>
    <g id="Page-1" stroke="none" stroke-width="1" fill="none" fill-rule="evenodd">
        <g id="Artboard" transform="translate(-261.000000, -333.000000)" fill="#9CA3AF" fill-rule="nonzero">
            <path d="M279.929196,345.366796 L282.602971,364.746977 L282.607022,364.773995 C282.699198,365.343024 283.200251,365.74891 283.766758,365.731502 L283.889029,365.721198 L283.916971,365.716992 C284.317791,365.651601 284.650947,365.378583 284.796277,365.004909 L284.837599,364.87677 L288.591011,350.36694 L290.13213,352.98468 L290.147431,353.009921 C290.332307,353.306203 290.641691,353.499911 290.985069,353.5393 L291.115252,353.546736 L301.341787,353.546736 C301.971858,353.546736 302.482631,354.057509 302.482631,354.68758 C302.482631,354.882144 302.437592,355.067102 302.352177,355.227613 L293.563321,370.450348 C293.190585,371.095945 292.501742,371.493649 291.756271,371.493649 L272.226361,371.493649 C271.48089,371.493649 270.792046,371.095945 270.419311,370.450348 L261.629634,355.226163 C261.544468,355.065918 261.5,354.88185 261.5,354.68758 C261.5,354.057509 262.010773,353.546736 262.640844,353.546736 L272.283873,353.546736 L274.727666,357.697685 L274.742687,357.722487 C275.047061,358.211192 275.665078,358.392434 276.180786,358.158534 L276.289577,358.102019 L276.317244,358.085199 C276.528527,357.952605 276.689817,357.754864 276.777613,357.523151 L276.815277,357.404608 L279.929196,345.366796 Z M386.357418,342.750868 C386.967983,342.750868 387.605485,342.80923 388.269924,342.925956 C388.934363,343.042682 389.571865,343.22226 390.18243,343.46469 C390.792996,343.707121 391.367646,344.007914 391.90638,344.36707 C392.445114,344.726226 392.903038,345.157214 393.280152,345.660032 L393.280152,345.660032 L390.694228,347.707222 L390.520968,347.486574 C390.043867,346.916358 389.44616,346.491578 388.727848,346.212235 C387.919747,345.897973 387.129603,345.740842 386.357418,345.740842 C385.369738,345.740842 384.471848,345.92042 383.663747,346.279576 C382.855646,346.638733 382.159781,347.132572 381.576152,347.761095 C380.992523,348.389619 380.543578,349.125889 380.229316,349.969906 C379.915055,350.813922 379.757924,351.729771 379.757924,352.71745 C379.757924,353.759003 379.910565,354.710766 380.215848,355.572741 C380.521131,356.434716 380.956608,357.175475 381.522278,357.795019 C382.087949,358.414564 382.765857,358.894935 383.556,359.236133 C384.346143,359.577332 385.235055,359.747931 386.222734,359.747931 C387.246329,359.747931 388.153198,359.545906 388.943342,359.141855 C389.733485,358.737804 390.370987,358.20356 390.855848,357.539121 L390.855848,357.539121 L393.576456,359.451627 L393.341594,359.734685 C392.54314,360.658547 391.588853,361.385764 390.478734,361.916336 C389.257603,362.499965 387.829958,362.791779 386.195797,362.791779 C384.7053,362.791779 383.336017,362.544859 382.087949,362.051019 C380.839882,361.55718 379.766903,360.865804 378.869013,359.976893 C377.971122,359.087982 377.270768,358.028471 376.767949,356.798361 C376.265131,355.568252 376.013722,354.207948 376.013722,352.71745 C376.013722,351.191036 376.278599,349.812775 376.808354,348.582665 C377.33811,347.352555 378.065401,346.306513 378.990228,345.444538 C379.915055,344.582564 381.005992,343.918125 382.263038,343.451222 C383.520084,342.984319 384.884878,342.750868 386.357418,342.750868 Z M331.210278,349.377298 L331.210278,356.542463 L331.215329,356.828665 C331.22543,357.118235 331.250684,357.417906 331.291089,357.727678 C331.344962,358.140707 331.461688,358.513332 331.641266,358.845551 C331.820844,359.17777 332.067764,359.451627 332.382025,359.667121 C332.696287,359.882614 333.113806,359.990361 333.634582,359.990361 C334.137401,359.990361 334.581857,359.887104 334.967949,359.680589 C335.354042,359.474074 335.668304,359.209197 335.910734,358.885956 C336.153165,358.562716 336.337232,358.190091 336.462937,357.768083 C336.588641,357.346074 336.651494,356.919576 336.651494,356.488589 L336.651494,356.488589 L336.651494,349.377298 L339.883899,349.377298 L339.883899,362.306918 L336.813114,362.306918 L336.813114,360.232792 L336.759241,360.232792 L336.655651,360.445459 C336.358571,361.005033 335.894772,361.504304 335.264253,361.943273 C334.55492,362.437112 333.715392,362.684032 332.745671,362.684032 C331.901654,362.684032 331.178852,362.53588 330.577266,362.239576 C329.975679,361.943273 329.48184,361.55269 329.095747,361.06783 C328.709654,360.582969 328.426819,360.026277 328.247241,359.397754 C328.067662,358.76923 327.977873,358.122749 327.977873,357.458311 L327.977873,357.458311 L327.977873,349.377298 L331.210278,349.377298 Z M353.971797,349.000184 C354.905603,349.000184 355.816962,349.161804 356.705873,349.485045 C357.594785,349.808285 358.299629,350.302125 358.820405,350.966564 L358.820405,350.966564 L356.719342,352.825197 L356.589606,352.6666 C356.31694,352.355453 355.965114,352.080589 355.534127,351.842007 C355.031308,351.563661 354.483595,351.424488 353.890987,351.424488 C353.370211,351.424488 352.894329,351.532235 352.463342,351.747728 C352.032354,351.963222 351.816861,352.322378 351.816861,352.825197 C351.816861,353.328015 352.054802,353.682682 352.530684,353.889197 C353.006565,354.095711 353.70243,354.306716 354.618278,354.522209 C355.103139,354.629956 355.592489,354.773619 356.086329,354.953197 C356.580169,355.132775 357.029114,355.370716 357.433165,355.667019 C357.837215,355.963323 358.164945,356.331458 358.416354,356.771425 C358.667764,357.211391 358.793468,357.745636 358.793468,358.374159 C358.793468,359.164302 358.645316,359.83323 358.349013,360.380944 C358.052709,360.928657 357.657637,361.373112 357.163797,361.714311 C356.669958,362.055509 356.095308,362.302429 355.439848,362.45507 C354.784388,362.607711 354.106481,362.684032 353.406127,362.684032 C352.400489,362.684032 351.421789,362.499965 350.470025,362.13183 C349.518262,361.763695 348.728118,361.238429 348.099595,360.556032 L348.099595,360.556032 L350.227595,358.562716 L350.388116,358.757869 C350.722351,359.138282 351.135747,359.459323 351.628304,359.720994 C352.202954,360.026277 352.840456,360.178918 353.54081,360.178918 C353.774262,360.178918 354.012203,360.151982 354.254633,360.098108 C354.497063,360.044235 354.721536,359.958935 354.928051,359.842209 C355.134565,359.725484 355.300675,359.568353 355.42638,359.370817 C355.552084,359.173281 355.614937,358.930851 355.614937,358.643526 C355.614937,358.104792 355.368017,357.718699 354.874177,357.485247 C354.380338,357.251796 353.639578,357.018344 352.651899,356.784893 C352.167038,356.677146 351.695646,356.537973 351.237722,356.367374 C350.779797,356.196775 350.371257,355.972302 350.012101,355.693956 C349.652945,355.41561 349.36562,355.069922 349.150127,354.656893 C348.934633,354.243863 348.826886,353.732066 348.826886,353.1215 C348.826886,352.403188 348.975038,351.783644 349.271342,351.262868 C349.567646,350.742091 349.958228,350.315593 350.443089,349.983374 C350.927949,349.651155 351.475662,349.404235 352.086228,349.242614 C352.696793,349.080994 353.325316,349.000184 353.971797,349.000184 Z M367.393975,349.000184 C368.291865,349.000184 369.122414,349.148336 369.88562,349.44464 C370.648827,349.740944 371.308776,350.18091 371.865468,350.764538 C372.42216,351.348167 372.857637,352.075458 373.171899,352.946412 C373.48616,353.817365 373.643291,354.836471 373.643291,356.003728 L373.643291,356.003728 L373.643291,356.434716 L373.636557,356.650209 L373.636557,356.650209 L373.616354,356.865703 L363.784456,356.865703 L363.809522,357.095787 C363.863146,357.47365 363.976006,357.823453 364.148101,358.145197 C364.354616,358.531289 364.628473,358.863509 364.969671,359.141855 C365.310869,359.420201 365.696962,359.640184 366.127949,359.801804 C366.558937,359.963425 367.007882,360.044235 367.474785,360.044235 C368.282886,360.044235 368.965283,359.896083 369.521975,359.599779 C370.078667,359.303475 370.536591,358.894935 370.895747,358.374159 L370.895747,358.374159 L373.050684,360.098108 L372.88112,360.318083 C371.613754,361.895382 369.820621,362.684032 367.501722,362.684032 C366.496084,362.684032 365.571257,362.526901 364.727241,362.21264 C363.883224,361.898378 363.151443,361.453922 362.531899,360.879273 C361.912354,360.304623 361.427494,359.599779 361.077316,358.764741 C360.727139,357.929703 360.552051,356.982429 360.552051,355.922918 C360.552051,354.881365 360.727139,353.934091 361.077316,353.081095 C361.427494,352.2281 361.907865,351.500809 362.51843,350.899222 C363.128996,350.297636 363.851797,349.830733 364.686835,349.498513 C365.521873,349.166294 366.424253,349.000184 367.393975,349.000184 Z M416.334127,349.000184 C417.483426,349.000184 418.4307,349.161804 419.175949,349.485045 C419.921199,349.808285 420.509316,350.230294 420.940304,350.75107 C421.371291,351.271846 421.672085,351.855475 421.842684,352.501956 C422.013282,353.148437 422.098582,353.794918 422.098582,354.441399 L422.098582,354.441399 L422.098582,362.306918 L419.081671,362.306918 L419.081671,360.663779 L419.000861,360.663779 C418.67762,361.238429 418.156844,361.709821 417.438532,362.077956 C416.720219,362.446091 415.903139,362.630159 414.987291,362.630159 C414.466515,362.630159 413.923291,362.562817 413.35762,362.428133 C412.791949,362.29345 412.271173,362.068977 411.795291,361.754716 C411.319409,361.440454 410.924338,361.027425 410.610076,360.515627 C410.295814,360.00383 410.138684,359.370817 410.138684,358.616589 C410.138684,357.646868 410.41254,356.874682 410.960253,356.300032 C411.507966,355.725382 412.21281,355.285416 413.074785,354.980133 C413.936759,354.674851 414.893013,354.472825 415.943544,354.374057 C416.994076,354.275289 418.022161,354.225906 419.027797,354.225906 L419.027797,354.225906 L419.027797,353.902665 C419.027797,353.094564 418.735983,352.497467 418.152354,352.111374 C417.568725,351.725281 416.872861,351.532235 416.064759,351.532235 C415.382363,351.532235 414.726903,351.675897 414.09838,351.963222 C413.469857,352.250547 412.94908,352.600724 412.536051,353.013754 L412.536051,353.013754 L410.865975,351.047374 C411.602244,350.364977 412.450751,349.85318 413.411494,349.511982 C414.372237,349.170783 415.346447,349.000184 416.334127,349.000184 Z M318.550025,343.235728 L319.012897,343.241775 C319.925447,343.265963 320.758835,343.362716 321.513063,343.532032 C322.392996,343.729568 323.147224,344.052809 323.775747,344.501754 C324.40427,344.950699 324.889131,345.525349 325.230329,346.225703 C325.571527,346.926057 325.742127,347.770074 325.742127,348.757754 C325.742127,349.817264 325.544591,350.706176 325.149519,351.424488 C324.754447,352.1428 324.220203,352.721939 323.546785,353.161906 C322.873367,353.601872 322.087713,353.920623 321.189823,354.118159 C320.291932,354.315695 319.340169,354.414463 318.334532,354.414463 L318.334532,354.414463 L315.721671,354.414463 L315.721671,362.306918 L312.327646,362.306918 L312.327646,343.235728 L318.550025,343.235728 Z M346.087038,343.258817 L346.087038,362.306918 L342.854633,362.306918 L342.854633,343.258817 L346.087038,343.258817 Z M399.186987,342.700214 L399.186987,351.182057 L399.240861,351.182057 C399.366565,350.91269 399.550633,350.647813 399.793063,350.387425 C400.035494,350.127036 400.318329,349.893585 400.64157,349.68707 C400.96481,349.480555 401.332945,349.314446 401.745975,349.188741 C402.159004,349.063036 402.607949,349.000184 403.09281,349.000184 C403.936827,349.000184 404.659629,349.148336 405.261215,349.44464 C405.862802,349.740944 406.356641,350.131526 406.742734,350.616387 C407.128827,351.101247 407.411662,351.657939 407.591241,352.286463 C407.770819,352.914986 407.860608,353.561467 407.860608,354.225906 L407.860608,354.225906 L407.860608,362.306918 L404.628203,362.306918 L404.628203,355.195627 C404.628203,354.818513 404.601266,354.427931 404.547392,354.02388 C404.493519,353.61983 404.381283,353.251695 404.210684,352.919475 C404.040084,352.587256 403.797654,352.313399 403.483392,352.097906 C403.169131,351.882412 402.751612,351.774665 402.230835,351.774665 C401.710059,351.774665 401.261114,351.873433 400.884,352.070969 C400.506886,352.268505 400.192624,352.533382 399.941215,352.865602 C399.689806,353.197821 399.501249,353.570446 399.375544,353.983475 C399.24984,354.396505 399.186987,354.818513 399.186987,355.2495 L399.186987,355.2495 L399.186987,362.306918 L395.954582,362.306918 L395.954582,342.700214 L399.186987,342.700214 Z M428.097772,349.377298 L428.097772,362.306918 L424.865367,362.306918 L424.865367,349.377298 L428.097772,349.377298 Z M438.014329,349.000184 C438.858346,349.000184 439.581148,349.148336 440.182734,349.44464 C440.78432,349.740944 441.278161,350.131526 441.664253,350.616387 C442.050346,351.101247 442.333181,351.657939 442.512759,352.286463 C442.692338,352.914986 442.782127,353.561467 442.782127,354.225906 L442.782127,354.225906 L442.782127,362.306918 L439.549722,362.306918 L439.549722,355.141754 C439.549722,354.76464 439.522785,354.369568 439.468911,353.956538 C439.415038,353.543509 439.298313,353.170884 439.118734,352.838665 C438.939156,352.506446 438.692237,352.232589 438.377975,352.017095 C438.063713,351.801602 437.646194,351.693855 437.125418,351.693855 C436.604642,351.693855 436.155696,351.797112 435.778582,352.003627 C435.401468,352.210142 435.091696,352.475019 434.849266,352.79826 C434.606835,353.1215 434.422768,353.494125 434.297063,353.916133 C434.171358,354.338142 434.108506,354.76464 434.108506,355.195627 L434.108506,355.195627 L434.108506,362.306918 L430.876101,362.306918 L430.876101,349.377298 L433.946886,349.377298 L433.946886,351.09511 C434.506571,350.521559 435.022858,350.07017 435.495747,349.740944 C436.20508,349.247104 437.044608,349.000184 438.014329,349.000184 Z M419.027797,356.407779 L418.300506,356.407779 L417.904874,356.411988 C417.50419,356.420406 417.088354,356.44145 416.657367,356.475121 C416.082718,356.520015 415.552962,356.618783 415.068101,356.771425 C414.583241,356.924066 414.17919,357.13956 413.855949,357.417906 C413.532709,357.696252 413.371089,358.077855 413.371089,358.562716 C413.371089,358.867998 413.43843,359.123897 413.573114,359.330412 C413.707797,359.536927 413.882886,359.703036 414.09838,359.828741 C414.313873,359.954446 414.556304,360.044235 414.825671,360.098108 C415.095038,360.151982 415.364405,360.178918 415.633772,360.178918 C416.747156,360.178918 417.591173,359.882614 418.165823,359.290007 C418.740472,358.697399 419.027797,357.889298 419.027797,356.865703 L419.027797,356.865703 L419.027797,356.407779 Z M291.756271,333.493649 C292.501742,333.493649 293.190585,333.891353 293.563321,334.53695 L302.352725,349.760377 C302.437724,349.920721 302.482631,350.105575 302.482631,350.299718 C302.482631,350.929789 301.971858,351.440562 301.341787,351.440562 L291.667166,351.440562 L289.223372,347.289613 L289.206552,347.261947 C289.073958,347.050663 288.876217,346.889373 288.644504,346.801578 L288.525961,346.763913 L288.499433,346.757382 C287.938119,346.626168 287.372146,346.935152 287.172744,347.465692 L287.135762,347.58269 L284.021755,359.620415 L281.348068,340.240321 L281.343862,340.212379 C281.271204,339.767023 280.942219,339.405203 280.503639,339.291751 C279.934313,339.144477 279.354167,339.453989 279.151052,339.991858 L279.11344,340.110528 L275.35994,354.62027 L273.818909,352.002618 L273.803608,351.977377 C273.618732,351.681095 273.309348,351.487387 272.96597,351.447998 L272.835787,351.440562 L262.640844,351.440562 C262.010773,351.440562 261.5,350.929789 261.5,350.299718 C261.5,350.107063 261.543274,349.924854 261.626871,349.765584 L270.419311,334.53695 C270.792046,333.891353 271.48089,333.493649 272.226361,333.493649 L291.756271,333.493649 Z M367.655646,351.424488 C366.685924,351.424488 365.864354,351.716302 365.190937,352.299931 C364.517519,352.88356 364.144895,353.633298 364.073063,354.549146 L364.073063,354.549146 L370.699494,354.549146 C370.699494,354.136117 370.641131,353.741045 370.524405,353.363931 C370.407679,352.986817 370.223612,352.654598 369.972203,352.367273 C369.720793,352.079948 369.402042,351.850986 369.015949,351.680387 C368.629857,351.509787 368.176422,351.424488 367.655646,351.424488 Z M317.911241,346.091019 L315.433063,346.091019 L315.433063,351.559171 L317.803494,351.559171 C318.360186,351.559171 318.889941,351.518766 319.392759,351.437956 C319.895578,351.357146 320.344523,351.213484 320.739595,351.006969 C321.134667,350.800454 321.448928,350.517619 321.68238,350.158463 C321.915831,349.799306 322.032557,349.332403 322.032557,348.757754 C322.032557,348.201062 321.915831,347.747627 321.68238,347.39745 C321.448928,347.047273 321.139156,346.773416 320.753063,346.57588 C320.36697,346.378344 319.927004,346.24815 319.433165,346.185298 C318.939325,346.122446 318.432017,346.091019 317.911241,346.091019 L317.911241,346.091019 Z M426.454633,343.047171 C427.047241,343.047171 427.54557,343.231239 427.94962,343.599374 C428.353671,343.967509 428.555696,344.429922 428.555696,344.986614 C428.555696,345.543306 428.353671,346.00572 427.94962,346.373855 C427.54557,346.74199 427.047241,346.926057 426.454633,346.926057 C425.862025,346.926057 425.372675,346.733011 424.986582,346.346918 C424.60049,345.960825 424.407443,345.507391 424.407443,344.986614 C424.407443,344.465838 424.60049,344.012403 424.986582,343.626311 C425.372675,343.240218 425.862025,343.047171 426.454633,343.047171 Z" id="pulse-chain-logo"></path>
        </g>
    </g>
</svg>