<?xml version="1.0" encoding="UTF-8"?>
<svg width="118px" height="42px" viewBox="0 0 118 42" version="1.1" xmlns="http://www.w3.org/2000/svg" xmlns:xlink="http://www.w3.org/1999/xlink">
    <title>staker-logo</title>
    <g id="Page-1" stroke="none" stroke-width="1" fill="none" fill-rule="evenodd">
        <g id="Artboard" transform="translate(-781.000000, -251.000000)" fill="#9CA3AF" fill-rule="nonzero">
            <path d="M801.323497,256.664474 L803.285018,258.660017 C804.370114,259.782511 805.76822,261.341529 806.394237,262.131432 C807.562803,263.690451 808.33489,265.207895 809.044377,267.432095 C809.378253,268.533802 809.461722,269.344491 809.461722,271.901282 C809.461722,274.956958 809.440854,275.060893 808.710501,277.160371 C808.293156,278.345225 807.562803,279.945818 807.082856,280.694147 C806.647904,281.362901 804.242078,283.952262 801.694194,286.58437 L801.165618,287.128938 C798.253903,290.120642 795.321556,293 795.063324,293 C794.917253,293 794.604245,292.625836 794.374705,292.168523 C793.832157,291.108391 793.790422,288.759469 794.312103,288.011141 C794.499908,287.720124 796.398828,285.703793 798.548154,283.541954 C800.676612,281.359328 802.638133,279.301423 802.867673,278.968833 C803.681495,277.783979 804.432716,276.183386 804.70399,274.977745 C805.330008,272.420955 804.93353,268.450654 803.869301,266.39275 C803.389354,265.478125 801.699107,263.274712 801.386099,263.149991 C801.240028,263.108417 798.610755,265.519699 795.543271,268.513015 C792.454919,271.527117 789.825646,273.979973 789.700443,273.979973 C789.387434,273.979973 789.11616,272.275446 789.262231,271.17374 C789.429168,270.03046 789.929982,268.575376 790.472531,267.743899 C790.70207,267.390521 793.227007,264.77137 796.106686,261.881989 L801.323497,256.664474 Z M796.152647,251.916347 C796.674392,252.952603 796.674392,254.569161 796.152647,255.584691 C795.92308,256.019919 794.253498,257.864453 792.437829,259.667537 C788.180396,263.936909 787.262126,264.99389 786.489944,266.486097 C784.340358,270.693294 785.175149,276.827926 788.305614,279.874516 L789.244754,280.807146 L794.98394,275.107742 C800.660517,269.470513 800.702257,269.429063 800.931824,270.009366 C801.474438,271.418673 801.077913,273.84351 799.950945,276.019647 C799.750596,276.417569 796.789871,279.491885 794.016337,282.274588 L793.243646,283.047089 C791.124482,285.157979 789.288233,286.921053 789.140405,286.921053 C788.68127,286.921053 784.486447,282.44443 783.442958,280.869321 C782.879474,279.998867 782.107293,278.423759 781.710767,277.366778 C781.069864,275.625869 781.007841,275.423579 781.001838,272.819822 L781.001838,270.970879 C781.007841,268.367122 781.069864,268.164831 781.710767,266.423922 C782.878716,263.269938 783.885722,261.953959 789.511767,256.316851 L790.818647,255.009064 C795.601927,250.223721 795.40766,250.475639 796.152647,251.916347 Z M830.43409,259.455263 C833.611722,259.455263 836.098564,260.975 837.507774,263.821053 L837.507774,263.821053 L833.777511,266.003947 C833.114353,264.622368 832.202511,263.765789 830.43409,263.765789 C829.052511,263.765789 828.361722,264.456579 828.361722,265.230263 C828.361722,266.114474 828.831458,266.722368 831.843301,267.634211 C831.908388,267.65386 831.973653,267.673577 832.039056,267.693395 L832.432799,267.813763 C835.196055,268.668368 838.060406,269.813421 838.060406,273.630263 C838.060406,277.360526 835.076195,279.571053 830.876195,279.571053 C826.814353,279.571053 824.216985,277.636842 823.139353,274.790789 L823.139353,274.790789 L826.952511,272.580263 C827.643301,274.182895 828.831458,275.260526 831.014353,275.260526 C833.114353,275.260526 833.639353,274.431579 833.639353,273.685526 C833.639353,272.497368 832.53409,272.027632 829.632774,271.226316 C826.75909,270.425 823.940669,269.043421 823.940669,265.340789 C823.940669,261.610526 827.090669,259.455263 830.43409,259.455263 Z M853.036722,264.981579 C854.888037,264.981579 856.241985,265.617105 857.153827,266.667105 L857.153827,266.667105 L857.153827,265.368421 L861.298564,265.368421 L861.298564,279.184211 L857.153827,279.184211 L857.153827,277.885526 C856.241985,278.935526 854.888037,279.571053 853.036722,279.571053 C849.416985,279.571053 846.432774,276.393421 846.432774,272.276316 C846.432774,268.159211 849.416985,264.981579 853.036722,264.981579 Z M882.188037,264.981579 C886.222248,264.981579 889.206458,268.103947 889.206458,272.276316 C889.206458,272.856579 889.151195,273.409211 889.040669,273.934211 L889.040669,273.934211 L879.231458,273.934211 C879.756458,275.371053 881.027511,275.868421 882.547248,275.868421 C883.680143,275.868421 884.647248,275.426316 885.19988,274.818421 L885.19988,274.818421 L888.515669,276.725 C887.161722,278.603947 885.116985,279.571053 882.491985,279.571053 C877.766985,279.571053 874.838037,276.393421 874.838037,272.276316 C874.838037,268.159211 877.822248,264.981579 882.188037,264.981579 Z M843.586722,261.5 L843.586722,265.368421 L846.432774,265.368421 L846.432774,269.347368 L843.586722,269.347368 L843.586722,274.238158 C843.586722,275.426316 844.60909,275.536842 846.432774,275.426316 L846.432774,275.426316 L846.432774,279.184211 C841.016985,279.736842 839.441985,278.106579 839.441985,274.238158 L839.441985,274.238158 L839.441985,269.347368 L837.231458,269.347368 L837.231458,265.368421 L839.441985,265.368421 L839.441985,262.743421 L843.586722,261.5 Z M867.101195,259.842105 L867.101195,271.419737 L871.245932,265.368421 L876.081458,265.368421 L871.052511,272.276316 L876.219616,279.184211 L871.522248,279.184211 L867.101195,273.077632 L867.101195,279.184211 L862.956458,279.184211 L862.956458,259.842105 L867.101195,259.842105 Z M898.463037,265.092105 L898.463037,269.789474 C896.74988,269.513158 894.318301,270.203947 894.318301,272.939474 L894.318301,272.939474 L894.318301,279.184211 L890.173564,279.184211 L890.173564,265.368421 L894.318301,265.368421 L894.318301,267.827632 C894.870932,265.976316 896.722248,265.092105 898.463037,265.092105 L898.463037,265.092105 Z M853.865669,268.905263 C851.95909,268.905263 850.577511,270.203947 850.577511,272.276316 C850.577511,274.348684 851.95909,275.647368 853.865669,275.647368 C855.772248,275.647368 857.153827,274.348684 857.153827,272.276316 C857.153827,270.203947 855.772248,268.905263 853.865669,268.905263 Z M882.160406,268.656579 C880.585406,268.656579 879.535406,269.430263 879.148564,270.839474 L879.148564,270.839474 L885.089353,270.839474 C884.647248,269.236842 883.403827,268.656579 882.160406,268.656579 Z" id="staker-logo"></path>
        </g>
    </g>
</svg>