<?xml version="1.0" encoding="UTF-8"?>
<svg width="203px" height="25px" viewBox="0 0 203 25" version="1.1" xmlns="http://www.w3.org/2000/svg" xmlns:xlink="http://www.w3.org/1999/xlink">
    <title>stake-hex-today-logo</title>
    <g id="Page-1" stroke="none" stroke-width="1" fill="none" fill-rule="evenodd">
        <g id="Artboard" transform="translate(-514.000000, -261.000000)" fill="#9CA3AF" fill-rule="nonzero">
            <path d="M521.955662,280.860383 C526.571047,280.860383 529.304079,278.769885 529.322178,275.249523 C529.304079,272.290247 527.304079,270.480292 523.64797,269.674862 L522.05521,269.312871 C520.371952,268.95088 519.304079,268.389795 519.340278,267.285722 C519.349328,266.272147 520.218106,265.539116 521.955662,265.539116 C523.702269,265.539116 524.661545,266.326446 524.779192,267.647713 L529.068785,267.647713 C529.032586,264.18165 526.272405,261.837758 521.964712,261.837758 C517.729418,261.837758 514.679644,264.145451 514.706794,267.593414 C514.697744,270.407894 516.670595,271.991604 519.874215,272.724636 L521.810866,273.177125 C523.847065,273.647713 524.761092,274.199749 524.779192,275.240473 C524.761092,276.371695 523.702269,277.159025 521.901364,277.159025 C519.919463,277.159025 518.616296,276.235948 518.516748,274.453143 L514.227156,274.453143 C514.281454,278.787985 517.295029,280.860383 521.955662,280.860383 Z M536.751383,280.824184 C537.819256,280.769885 538.588487,280.55269 539.013826,280.425994 L538.344143,277.231423 C538.154098,277.276672 537.710659,277.36717 537.375817,277.36717 C536.660885,277.36717 536.253645,277.077577 536.253645,276.254048 L536.253645,269.982555 L538.760433,269.982555 L538.760433,266.724636 L536.253645,266.724636 L536.253645,263.394319 L531.828306,263.394319 L531.828306,266.724636 L529.991202,266.724636 L529.991202,269.982555 L531.828306,269.982555 L531.828306,276.742736 C531.801157,279.557215 533.629211,280.96898 536.751383,280.824184 Z M544.261958,280.860383 C546.19861,280.860383 547.537976,280.109252 548.298157,278.688437 L548.406755,278.688437 L548.406755,280.625089 L552.569651,280.625089 L552.569651,271.177125 C552.569651,268.235948 549.954266,266.543641 546.415804,266.543641 C542.678248,266.543641 540.560601,268.425994 540.20766,270.95993 L544.289108,271.104727 C544.479153,270.217849 545.212185,269.674862 546.379605,269.674862 C547.465578,269.674862 548.153361,270.199749 548.153361,271.131876 L548.153361,271.177125 C548.153361,272.027804 547.230284,272.208799 544.859243,272.416944 C542.044764,272.652238 539.691823,273.692962 539.691823,276.769885 C539.691823,279.521016 541.601325,280.860383 544.261958,280.860383 Z M545.628474,277.964455 C544.60585,277.964455 543.881868,277.475767 543.881868,276.55269 C543.881868,275.656763 544.58775,275.113776 545.845669,274.923731 C546.669198,274.806084 547.682773,274.625089 548.18051,274.362645 L548.18051,275.683912 C548.18051,277.041378 547.040239,277.964455 545.628474,277.964455 Z M559.012408,280.625089 L559.012408,276.453143 L559.908335,275.36717 L563.220553,280.625089 L568.333675,280.625089 L563.202453,272.778935 L568.13458,266.724636 L563.121005,266.724636 L559.211503,271.702012 L559.012408,271.702012 L559.012408,262.091152 L554.587068,262.091152 L554.587068,280.625089 L559.012408,280.625089 Z M574.966473,280.887532 C578.613532,280.887532 581.011722,279.122826 581.518509,276.389795 L577.455161,276.272147 C577.11127,277.195224 576.206292,277.692962 575.047921,277.692962 C573.346564,277.692962 572.29679,276.56174 572.29679,274.860383 L572.29679,274.742736 L581.563758,274.742736 L581.563758,273.638663 C581.563758,269.059478 578.776428,266.543641 574.830727,266.543641 C570.631632,266.543641 567.934799,269.421469 567.934799,273.729161 C567.934799,278.18165 570.595432,280.887532 574.966473,280.887532 Z M577.446111,272.1726 L572.29679,272.1726 C572.360138,270.787985 573.455161,269.738211 574.921224,269.738211 C576.378238,269.738211 577.428012,270.751785 577.446111,272.1726 Z M592.44012,280.625089 L592.44012,273.177125 L599.743288,273.177125 L599.743288,280.625089 L604.213876,280.625089 L604.213876,262.091152 L599.743288,262.091152 L599.743288,269.530066 L592.44012,269.530066 L592.44012,262.091152 L587.960482,262.091152 L587.960482,280.625089 L592.44012,280.625089 Z M619.263015,280.625089 L619.263015,276.98708 L610.819576,276.98708 L610.819576,273.177125 L618.602382,273.177125 L618.602382,269.530066 L610.819576,269.530066 L610.819576,265.729161 L619.263015,265.729161 L619.263015,262.091152 L606.339938,262.091152 L606.339938,280.625089 L619.263015,280.625089 Z M625.832479,280.625089 L629.307592,274.706537 L629.452388,274.706537 L632.927501,280.625089 L638.067773,280.625089 L632.294017,271.35812 L637.886777,262.091152 L632.873202,262.091152 L629.452388,267.946356 L629.307592,267.946356 L625.922976,262.091152 L620.873202,262.091152 L626.475012,271.35812 L620.728406,280.625089 L625.832479,280.625089 Z M653.776753,280.625089 L653.776753,265.729161 L659.396663,265.729161 L659.396663,262.091152 L643.731504,262.091152 L643.731504,265.729161 L649.360464,265.729161 L649.360464,280.625089 L653.776753,280.625089 Z M665.377885,280.887532 C669.748926,280.887532 672.400509,278.000654 672.400509,273.720111 C672.400509,269.430518 669.748926,266.543641 665.377885,266.543641 C661.006844,266.543641 658.355261,269.430518 658.355261,273.720111 C658.355261,278.000654 661.006844,280.887532 665.377885,280.887532 Z M665.405034,277.548166 C663.767025,277.548166 662.862048,275.991604 662.862048,273.692962 C662.862048,271.38527 663.767025,269.819659 665.405034,269.819659 C666.988745,269.819659 667.893722,271.38527 667.893722,273.692962 C667.893722,275.991604 666.988745,277.548166 665.405034,277.548166 Z M679.069521,280.824184 C681.169068,280.824184 682.417937,279.656763 682.979023,278.371695 L683.11477,278.371695 L683.11477,280.625089 L687.49486,280.625089 L687.49486,262.091152 L683.069521,262.091152 L683.069521,269.104727 L682.979023,269.104727 C682.454136,267.828709 681.241467,266.543641 679.051421,266.543641 C676.146444,266.543641 673.51296,268.778935 673.51296,273.683912 C673.51296,278.416944 676.001648,280.824184 679.069521,280.824184 Z M680.607982,277.37622 C678.969973,277.37622 678.055946,275.919206 678.055946,273.674862 C678.055946,271.439568 678.960924,270.000654 680.607982,270.000654 C682.227892,270.000654 683.169068,271.403369 683.169068,273.674862 C683.169068,275.928256 682.218842,277.37622 680.607982,277.37622 Z M693.539443,280.860383 C695.476095,280.860383 696.815461,280.109252 697.575642,278.688437 L697.68424,278.688437 L697.68424,280.625089 L701.847136,280.625089 L701.847136,271.177125 C701.847136,268.235948 699.231751,266.543641 695.69329,266.543641 C691.955733,266.543641 689.838086,268.425994 689.485145,270.95993 L693.566593,271.104727 C693.756638,270.217849 694.48967,269.674862 695.65709,269.674862 C696.743063,269.674862 697.430846,270.199749 697.430846,271.131876 L697.430846,271.177125 C697.430846,272.027804 696.507769,272.208799 694.136728,272.416944 C691.322249,272.652238 688.969308,273.692962 688.969308,276.769885 C688.969308,279.521016 690.87881,280.860383 693.539443,280.860383 Z M694.905959,277.964455 C693.883335,277.964455 693.159353,277.475767 693.159353,276.55269 C693.159353,275.656763 693.865235,275.113776 695.123154,274.923731 C695.946683,274.806084 696.960258,274.625089 697.457995,274.362645 L697.457995,275.683912 C697.457995,277.041378 696.317724,277.964455 694.905959,277.964455 Z M706.063643,285.837758 C709.249163,285.837758 710.832874,284.226899 711.602104,281.955405 L716.841923,266.724636 L712.18129,266.724636 L709.584005,276.643188 L709.439208,276.643188 L706.878122,266.724636 L702.244638,266.724636 L707.185815,281.131876 L707.013869,281.548166 C706.58853,282.58889 705.629254,282.606989 704.326086,282.18165 L703.348711,285.394319 C704.018394,285.665813 705.004819,285.837758 706.063643,285.837758 Z" id="stake-hex-today-logo"></path>
        </g>
    </g>
</svg>